<?xml version="1.0" encoding="UTF-8"?>
<svg width="35px" height="28px" viewBox="0 0 35 28" version="1.1" xmlns="http://www.w3.org/2000/svg" xmlns:xlink="http://www.w3.org/1999/xlink">
    <!-- Generator: Sketch 59 (86127) - https://sketch.com -->
    <title>Group 18</title>
    <desc>Created with Sketch.</desc>
    <g id="Page-1" stroke="none" stroke-width="1" fill="none" fill-rule="evenodd">
        <g id="Group-18" transform="translate(-0.000000, 0.000000)">
            <path d="M25.8854167,6.21724894e-14 C26.8242646,0.111787785 27.5152165,0.195465379 27.9582723,0.251032782 C28.4013281,0.306600185 28.7312095,0.275467508 28.9479167,0.157634751 C29.052903,0.282670787 29.1090028,0.385414657 29.116216,0.465866359 C29.1234293,0.546318062 29.0854637,0.645830798 29.0023193,0.764404567 C29.6323147,1.0062091 30.0431949,1.1356884 30.2349599,1.15284247 C30.4267249,1.16999655 30.5550293,1.08874925 30.619873,0.909100592 C30.7323517,1.18014547 30.8013045,1.36922188 30.8267314,1.47632982 C30.8521582,1.58343776 30.8521582,1.75799449 30.8267314,2 C30.8901697,2.16936 30.9616894,2.32646018 31.0412904,2.47130053 C31.1876799,2.64823225 31.322531,2.83549001 31.4470846,3.02990593 C31.7097322,3.30924652 32.0267075,3.50703643 32.3964461,3.62478156 C33.1239686,3.85646482 34.0127075,4.44681541 35.0626628,5.39583333 C34.5903501,5.19854058 34.2534903,5.09989421 34.0520833,5.09989421 C33.8506764,5.09989421 33.6763125,5.46416262 33.5289917,6.19269945 C33.5401025,7.07336977 33.6246498,7.82858106 33.7826335,8.45833333 C33.9005238,8.92826603 34.1588097,9.51156139 34.4759115,10.1569214 C34.5478069,10.3032419 34.7433907,10.524318 35.0626628,10.8201497 C34.822139,10.9794651 34.6265553,11.0591227 34.4759115,11.0591227 C34.3252677,11.0591227 34.094175,10.9794651 33.7826335,10.8201497 C34.1643428,12.7527575 34.3954354,14.2528186 34.4759115,15.3203328 C34.5563875,16.3878471 34.5563875,17.9532293 34.4759115,20.0164795 C34.172928,19.1098494 33.9418354,18.6319034 33.7826335,18.5826416 C33.6234316,18.5333798 33.4898934,18.7714508 33.382019,19.2968547 C33.03686,20.4256625 32.8470203,21.321645 32.8125,21.9848022 C32.7779797,22.6479595 32.901576,23.0245532 33.183289,23.1145833 C32.7636166,23.2083485 32.5013357,23.3038317 32.3964461,23.4010328 C32.3592011,23.4355477 32.7964027,23.920359 32.8125,25.1197917 C32.8158214,25.3672751 32.5819426,26.0051542 32.5800781,26.6957601 C32.5797289,26.8251087 32.5185182,26.6522165 32.3964461,26.1770833 L32.3684699,26.1129126 C32.3182079,26.2149752 32.2593013,26.3130012 32.1921906,26.4058597 L32.0843015,26.5424367 C31.7669066,26.910704 31.2110674,26.9519443 30.8428,26.6345493 C30.7199184,26.5286425 30.6312821,26.3933822 30.5820684,26.2451749 L30.552,26.1324844 L30.4960692,26.2014035 C30.2484965,26.480658 29.9380429,26.6964117 29.5647084,26.8486645 L29.372801,26.9194991 C28.9671497,27.0543605 28.5289775,26.8348418 28.3941162,26.4291904 C28.2899539,26.1158794 28.3960023,25.7709872 28.6582021,25.5703261 C28.708673,25.5316247 28.7579628,25.492977 28.8060345,25.4543353 C29.1933883,25.1429664 29.3633714,24.735312 29.315984,24.2313718 C29.2921669,23.9778169 29.4526044,23.7494234 29.6874777,23.6788287 C29.4596715,23.495497 29.3139242,23.2144279 29.3139242,22.8993177 L29.3138875,22.797444 L29.2110874,22.8344972 L29.1898234,23.1145833 C28.7899634,23.0164372 28.508712,23.0164372 28.3460693,23.1145833 C28.1834266,23.2127295 28.0618988,23.455785 27.981486,23.84375 C27.9811656,23.6714886 27.8875038,23.5361466 27.7005005,23.4377238 C27.5433658,23.3550213 27.2583338,23.265759 26.8454047,23.1699368 L26.6151003,23.1692344 L26.6494954,23.2605329 C26.7481283,23.5385045 26.7974447,23.7329102 26.7974447,23.84375 C26.7974447,23.9730632 26.7303196,24.0824382 26.5960693,24.171875 C26.1906297,23.8379727 25.5829908,23.5932556 24.7731527,23.4377238 C24.1688129,23.3216585 23.3319219,23.2322226 22.2624797,23.169416 L21.152541,23.1683632 C21.1699997,23.2844632 21.1840057,23.4037203 21.1945589,23.5261348 L21.200236,23.5429687 L21.200236,23.5429687 C21.294361,23.7804759 21.4266649,23.9415002 21.5971476,24.0260417 C21.4747191,24.1646344 21.3774257,24.2497038 21.3052673,24.28125 L21.2626918,24.2955062 L21.2151003,24.3032344 L21.2155211,24.3306809 C21.2133685,24.404415 21.2101395,24.4781491 21.2058343,24.5518832 C21.4378761,24.5810713 21.6597127,24.6213223 21.8717492,24.6716111 L21.8684489,24.669493 C22.2883801,24.6830274 22.6073193,24.7183488 22.8252665,24.775457 C23.0432137,24.8325652 23.3678021,24.965866 23.7990316,25.1753594 C23.5789491,25.1643898 23.4429187,25.1643898 23.3909403,25.1753594 C23.338962,25.1863289 23.3205836,25.2189154 23.3358051,25.2731189 C23.8738122,25.568964 24.2599308,25.8092453 24.494161,25.9939629 C24.7283911,26.1786805 24.9611453,26.4264521 25.1924235,26.7372776 C25.0469803,26.7764432 24.9487019,26.8285628 24.8975881,26.8936363 C24.8464743,26.9587099 24.8191424,27.0665065 24.8155924,27.217026 C24.9120076,27.3478345 24.9602153,27.4514061 24.9602153,27.5277407 C24.9602153,27.6040754 24.9120076,27.6898688 24.8155924,27.7851209 C24.7986767,27.7148152 24.7083141,27.6796623 24.5445048,27.6796623 C24.3806955,27.6796623 24.1322044,27.7148152 23.7990316,27.7851209 L23.4771208,27.2654445 C23.2205764,27.4863159 22.8802623,27.5968817 22.5332973,27.5600873 C21.9299051,27.4961262 21.3555704,27.4641325 20.8102902,27.4641325 C20.2409517,27.4641325 19.7194143,27.4990117 19.245678,27.5687701 C18.6475451,27.6568425 18.0912634,27.24336 18.0031875,26.6452277 C17.98635,26.5308823 17.987727,26.4145918 18.0072674,26.3006772 C18.0266997,26.1873919 18.0546265,26.0774074 18.0903237,25.9713283 L18.0885808,26.0868177 C18.0892415,25.9348564 18.0945008,25.7984479 18.1043585,25.677592 C18.0209028,25.7059604 17.9345902,25.7871886 17.8460693,25.921875 C17.7954961,25.6887564 17.7954961,25.494312 17.8460693,25.3385417 C17.8966425,25.1827714 18.034738,24.9518686 18.2603556,24.6458333 C18.03225,24.4433286 17.8941546,24.2974952 17.8460693,24.2083333 C17.8160174,24.1526096 18.0247851,24.1635464 18.1865492,23.9822051 L18.2431003,23.9062344 L18.2419442,23.8556802 C18.2290663,23.6696174 18.2033105,23.4835545 18.1646769,23.2974917 L16.9084478,23.2964901 L16.9067902,23.3045024 C16.9309819,23.527562 16.9589902,23.721152 16.9917196,23.8776449 C17.0244489,24.0341377 17.0661766,24.265895 17.1169027,24.5729167 C17.0127496,24.5261095 16.918708,24.5027059 16.8347778,24.5027059 L16.8087272,24.5050311 C16.8030398,24.6614585 16.8026268,24.8218925 16.8293463,24.986333 C16.9314601,25.1148723 17.0048489,25.2319735 17.0535278,25.3385417 C17.0912567,25.4211377 17.006536,25.510251 16.9636945,25.6318106 C16.9725296,25.7190709 16.978426,25.8157546 16.981597,25.9214847 L16.9811003,25.9232344 L17.006931,25.9695471 C17.0617486,26.0594409 17.1713225,26.2015363 17.3356527,26.3958333 L17.0805769,26.5283911 C17.0790545,26.567448 17.0754392,26.6064497 17.0697291,26.6452277 C16.9816532,27.24336 16.4253715,27.6568425 15.8272387,27.5687701 C15.3535024,27.4990117 14.831965,27.4641325 14.2626264,27.4641325 C13.7173463,27.4641325 13.1430116,27.4961262 12.5396194,27.5600873 C12.1653343,27.5997789 11.7987887,27.4679903 11.5367906,27.2112365 L11.1223551,27.7385511 C10.8478791,27.7090366 10.6231002,27.7090366 10.4480184,27.7385511 C10.2729366,27.7680656 10.0150443,27.8494323 9.6743415,27.982651 C9.80484813,27.7150084 9.90992875,27.5284443 9.98958333,27.4229586 C10.0692379,27.317473 10.1568708,27.2488288 10.2524821,27.217026 C10.1467715,27.0922939 10.0591386,27.0299278 9.98958333,27.0299278 C9.92002805,27.0299278 9.81494743,27.0922939 9.6743415,27.217026 C9.73456931,26.9597457 9.86954528,26.7254962 10.0792694,26.5142774 C10.2889935,26.3030586 10.6366888,26.051197 11.1223551,25.7586927 C11.2240193,25.6272685 11.2565849,25.5278388 11.2200521,25.4604037 C11.1835192,25.3929686 11.0456137,25.2979538 10.8063354,25.1753594 C10.9989107,25.0839237 11.2964401,25.0008481 11.6989237,24.9261325 C11.995722,24.8710359 12.4058083,24.8100497 12.9291826,24.7431738 C13.2223851,24.6584789 13.5346634,24.5947273 13.8670824,24.5518832 L13.8573956,24.3306809 L13.8561003,24.2472344 L13.8295391,24.2245025 C13.8198198,24.2177518 13.8097048,24.212362 13.7991943,24.2083333 C13.7019721,24.171068 13.6127133,24.2130212 13.5314178,24.3341929 C13.5302458,24.0858204 13.5523083,23.8880648 13.5976054,23.7409261 C13.6353529,23.6183105 13.7323186,23.4754452 13.8885024,23.3123301 L13.9024491,23.2982561 L13.9211003,23.1692344 L13.5848323,23.1694596 C13.5057116,23.2124687 13.4371239,23.2550118 13.379069,23.2970886 C13.1427028,23.4684016 12.9546196,23.7235387 12.8148193,24.0625 C12.4462448,23.7485309 12.1252406,23.5480101 11.8518066,23.4609375 C11.5783727,23.3738649 11.1361101,23.3313302 10.5250187,23.3333333 C10.3329788,23.5002125 10.2369588,23.6490365 10.2369588,23.7798055 C10.2369588,23.9105745 10.3329788,24.114181 10.5250187,24.390625 C9.87914144,24.320489 9.39428008,24.211114 9.07043457,24.0625 C8.74658906,23.913886 8.46346732,23.6708304 8.22106934,23.3333333 C8.12832529,23.5388704 8.03589771,23.6876944 7.94378662,23.7798055 C7.85167553,23.8719166 7.70104754,23.9661481 7.49190267,24.0625 C7.27267331,23.7400931 7.02961775,23.5395723 6.762736,23.4609375 C6.53559216,23.3940112 6.18485652,23.3840461 5.71052907,23.4310421 C5.71343298,23.5011379 5.71915157,23.5679988 5.72584252,23.6337874 L5.75899251,23.8993177 L5.6763918,23.8988962 C5.73747094,23.9942283 5.76834156,24.1099132 5.75693263,24.2313718 C5.70954522,24.735312 5.87952839,25.1429664 6.26688216,25.4543353 C6.3149539,25.492977 6.36424362,25.5316247 6.41471461,25.5703261 C6.67691438,25.7709872 6.78296274,26.1158794 6.67880049,26.4291904 C6.55517759,26.8010375 6.17668938,27.0164814 5.80201167,26.9459289 L5.70011566,26.9194991 L5.5082083,26.8486645 C5.13487374,26.6964117 4.82442012,26.480658 4.57684744,26.2014035 L4.52,26.1314844 L4.49084829,26.2451749 C4.44163452,26.3933822 4.35299828,26.5286425 4.23011664,26.6345493 C3.89253821,26.9254947 3.39734738,26.9150869 3.07268491,26.6276721 L2.98861512,26.5424367 L2.88072605,26.4058597 C2.78055813,26.2672612 2.69866735,26.1171506 2.63651799,25.9592883 C2.42885655,26.1637993 2.33883503,26.465939 2.36547487,26.8645744 C2.10902225,26.2281504 2.10902225,25.631892 2.36547487,25.0757992 C2.45815775,24.8748253 2.53645708,24.7066004 2.60037288,24.5711244 C2.64842701,24.4208484 2.71627542,24.2767474 2.79926652,24.1428679 C2.77359977,24.0193613 2.70036689,23.9583418 2.58110544,23.9583418 C2.45601801,23.9583418 2.25591484,24.0254686 1.98079594,24.1597221 C2.23724856,23.712612 2.36547487,23.2803799 2.36547487,22.8630258 C2.36547487,22.4456717 2.23724856,21.7468403 1.98079594,20.7665318 C1.69313599,20.7248203 1.47409941,20.8112768 1.3236862,21.0259012 C1.17327299,21.2405255 1.05892117,21.6297805 0.980630733,22.193666 C0.910015278,20.5050834 0.910015278,19.2387623 0.980630733,18.3947026 C1.04620223,17.6109328 1.23262298,16.4745423 1.539893,14.9855312 L1.61294672,14.6356537 L0.980630733,14.6356537 C1.20933438,13.9301449 1.3236862,13.3260542 1.3236862,12.8233816 C1.3236862,12.320709 1.20933438,11.4852644 0.980630733,10.3170478 C0.900689951,10.5476765 0.789794229,10.7661774 0.647943568,10.9725505 C0.506092907,11.1789236 0.290111717,11.4359835 -4.156675e-13,11.7437301 C0.314975285,10.2310062 0.530956474,9.10992424 0.647943568,8.38048428 C0.764930661,7.65104432 1.08659838,6.73996762 1.61294672,5.64725419 C1.56500848,5.52860081 1.46858831,5.45202695 1.3236862,5.41753262 C1.17878409,5.38303829 0.953536546,5.38303829 0.647943568,5.41753262 C1.24070643,4.93881076 1.68499055,4.64545679 1.98079594,4.53747071 C2.27660133,4.42948463 2.58728826,4.33226241 2.91285671,4.24580404 C3.05025175,3.36901245 3.1755179,2.6933248 3.28865515,2.21874111 C3.40179241,1.74415743 3.58132562,1.44241893 3.82725479,1.31352563 C4.07816856,1.57114038 4.34744381,1.6874066 4.63508054,1.66232429 C4.92271727,1.63724197 5.16875352,1.36186185 5.37318929,0.836183925 C5.61863755,0.86710458 5.80410957,0.879643144 5.92960534,0.873799616 C5.99233726,0.837530272 6.0564121,0.803522021 6.12112361,0.770574501 C6.08809557,0.668806729 5.92854368,0.46874666 5.64463534,0.176035681 C6.28705533,0.287623532 6.86658038,0.325427718 7.3832105,0.289448239 C7.9112696,0.147857019 8.4676665,0.0729166667 9.04166667,0.0729166667 C11.5615075,0.0729166667 13.7421017,1.51715183 14.7918781,3.61854875 C15.0234741,3.35916353 15.2214846,3.18036029 15.3859619,3.08160936 C15.5817052,2.9640865 15.8813481,2.86904798 16.2848905,2.7964938 C16.0054764,2.98372253 15.8657693,3.17671909 15.8657693,3.37548347 C15.8657693,3.57424784 15.9209627,3.70719259 16.0313495,3.77431769 C16.4551258,3.27745869 16.8501639,2.9515174 17.2164639,2.7964938 C17.5827638,2.64147021 17.9878593,2.61063728 18.4317504,2.70399502 C18.015546,2.85666429 17.7171153,3.02803745 17.5364583,3.21811449 C17.3558013,3.40819153 17.319132,3.5935926 17.4264504,3.77431769 C18.2072851,3.74983704 18.7456574,3.69726204 19.0415672,3.61659268 C19.337477,3.53592332 19.6460978,3.35759554 19.9674296,3.08160936 L20.112,3.847 L20.1723785,3.84739149 C21.1450922,1.68837574 23.2894325,0.164985009 25.8011048,0.0769440558 L25.938,0.074 L25.8854167,6.21724894e-14 Z M16.98,25.922 L16.981,25.9394844 L16.9811003,25.9232344 L16.98,25.922 Z M21.214,24.281 L21.2149669,24.3032995 L21.2151003,24.3032344 L21.214,24.281 Z M13.856,24.24 L13.8561003,24.2472344 L13.8575104,24.248838 L13.856,24.24 Z M18.2444492,23.9046834 L18.2431003,23.9062344 L18.244,23.9184844 L18.2444492,23.9046834 Z" id="Combined-Shape" fill="#EE712E"></path>
            <g id="Group-2-Copy-9" transform="translate(3.135417, 13.253484)">
                <path d="M3.74763808,0.145833333 L24.9815286,0.145833333 C26.6165578,0.145833333 27.9420109,1.47128643 27.9420109,3.10631569 C27.9420109,3.33711987 27.9150204,3.56713229 27.8615893,3.79166667 C27.3529797,5.92900436 25.4433937,7.4375 23.2463739,7.4375 L5.48279277,7.4375 C3.28577293,7.4375 1.37618693,5.92900436 0.867577345,3.79166667 C0.489068452,2.20105305 1.47167348,0.604763852 3.0622871,0.226254958 C3.28682147,0.172823843 3.51683389,0.145833333 3.74763808,0.145833333 Z" id="Rectangle-Copy-17" fill="#FFFFFF"></path>
                <path d="M27.9173505,-0.0475380667 C28.4695887,-0.0547094656 28.9230797,0.387154471 28.9302511,0.939392659 C28.9314958,1.03523541 28.9189544,1.13075927 28.8930119,1.2230326 L27.3508736,6.70817156 C27.2296073,7.13949647 26.8362448,7.43751658 26.3881972,7.43751658 L23.274344,7.43813873 C23.4463824,7.25852785 23.5520833,7.01486564 23.5520833,6.74651564 L23.5520833,6.74651564 L23.5520833,4.51734897 C23.5520833,3.96506422 23.1043681,3.51734897 22.5520833,3.51734897 L22.5520833,3.51734897 L21.4166667,3.51734897 C20.8643819,3.51734897 20.4166667,3.96506422 20.4166667,4.51734897 L20.4166667,4.51734897 L20.4166667,6.74651564 C20.4166667,7.01486564 20.5223676,7.25852785 20.694406,7.43813873 L19.4826773,7.43813873 C19.6547157,7.25852785 19.7604167,7.01486564 19.7604167,6.74651564 L19.7604167,6.74651564 L19.7604167,3.64234897 C19.7604167,3.09006422 19.3127014,2.64234897 18.7604167,2.64234897 L18.7604167,2.64234897 L17.625,2.64234897 C17.0727153,2.64234897 16.625,3.09006422 16.625,3.64234897 L16.625,3.64234897 L16.625,6.74651564 C16.625,7.01486564 16.730701,7.25852785 16.9027394,7.43813873 L15.6910106,7.43813873 C15.863049,7.25852785 15.96875,7.01486564 15.96875,6.74651564 L15.96875,6.74651564 L15.96875,5.31943231 C15.96875,4.76714756 15.5210347,4.31943231 14.96875,4.31943231 L14.96875,4.31943231 L13.8333333,4.31943231 C13.2810486,4.31943231 12.8333333,4.76714756 12.8333333,5.31943231 L12.8333333,5.31943231 L12.8333333,6.74651564 C12.8333333,7.01486564 12.9390343,7.25852785 13.1110727,7.43813873 L11.899344,7.43813873 C12.0713824,7.25852785 12.1770833,7.01486564 12.1770833,6.74651564 L12.1770833,6.74651564 L12.1770833,2.11109897 C12.1770833,1.55881422 11.7293681,1.11109897 11.1770833,1.11109897 L11.1770833,1.11109897 L10.0416667,1.11109897 C9.48938192,1.11109897 9.04166667,1.55881422 9.04166667,2.11109897 L9.04166667,2.11109897 L9.04166667,6.74651564 C9.04166667,7.01486564 9.14736764,7.25852785 9.31940603,7.43813873 L8.1076773,7.43813873 C8.2797157,7.25852785 8.38541667,7.01486564 8.38541667,6.74651564 L8.38541667,6.74651564 L8.38541667,4.51734897 C8.38541667,3.96506422 7.93770142,3.51734897 7.38541667,3.51734897 L7.38541667,3.51734897 L6.25,3.51734897 C5.69771525,3.51734897 5.25,3.96506422 5.25,4.51734897 L5.25,4.51734897 L5.25,6.74651564 C5.25,7.01486564 5.35570097,7.25852785 5.52773936,7.43813873 L2.34447442,7.43751658 C1.89642677,7.43751658 1.50306433,7.13949647 1.38179801,6.70817156 L-0.160533643,1.22234483 C-0.31001226,0.69067333 -0.000183707729,0.138492057 0.531487796,-0.0109865594 C0.623595878,-0.0368826033 0.718943723,-0.0494257313 0.814615452,-0.0482323557 L14.6532644,0.124386092 L14.6787221,0.12437957 L14.6787221,0.12437957 L27.9173505,-0.0475380667 Z" id="Combined-Shape" fill="#141414"></path>
            </g>
            <path d="M5.46875,19.8716688 C5.661707,20.3429449 5.97767922,20.578583 6.41666667,20.578583 C6.85565412,20.578583 7.65773745,20.4119215 8.82291667,20.0785983 C8.8926749,20.4058773 9.17635926,20.6099954 9.67396975,20.6909525 C10.1715802,20.7719096 11.0797226,20.5677915 12.3983968,20.0785983 C13.0772434,20.5907239 13.5625,20.7187554 13.8541667,20.4626925 C14.1458333,20.2066297 14.2916667,19.9424492 14.2916667,19.670151 C15.72885,20.1280316 16.9198222,20.3922121 17.8645833,20.4626925 C18.8093444,20.533173 19.8316494,20.533173 20.9314982,20.4626925 C21.9216447,20.4239098 22.4444862,20.368795 22.5000227,20.2973483 C22.5555591,20.2259015 22.7142226,20.1529849 22.9760132,20.0785983 C23.2780832,20.4007734 23.6767038,20.6048914 24.171875,20.6909525 C24.6670462,20.7770135 25.4337631,20.7009269 26.4720256,20.4626925 C26.9396572,20.6198322 27.2678257,20.6959189 27.4565312,20.6909525 C28.0509009,20.6753096 28.4482037,20.3958214 28.65625,20.2973483 C28.9633748,20.1519791 28.9633748,19.9429134 28.65625,19.670151 C29.5097453,19.8044962 30.0160319,19.8044962 30.1751099,19.670151 C30.3341878,19.5358059 30.6785956,19.0672033 31.2083333,18.2643433 L30.8072917,21.7847344 L4.265625,22.0403699 C3.73090278,19.5956507 3.59722222,18.5439996 3.86458333,18.8854167 C4.13194444,19.2268338 4.66666667,19.5555845 5.46875,19.8716688 Z" id="Path-Copy-7" fill="#EE712E"></path>
            <path d="M29.8438517,12.7815198 L24.2083333,13.0731865 L19.1189779,12.5972344 L3.86458333,13.0731865 L4.85066732,13.4377698 C5.41049054,13.6901357 5.83963551,13.8436594 6.13810221,13.8983411 C6.43656892,13.9530228 6.84539596,13.9530228 7.36458333,13.8983411 C7.47638205,13.6519349 7.8108208,13.4984112 8.36789958,13.4377698 C8.92497835,13.3771285 10.000879,13.3771285 11.5956014,13.4377698 C13.4394695,13.4348018 14.6773913,13.498319 15.3093669,13.6283216 C15.9413424,13.7583242 16.1158962,13.9378625 15.8330282,14.1669365 C16.8300963,14.1187886 17.468307,14.0373982 17.7476603,13.9227654 C18.0270136,13.8081326 18.336055,13.6464674 18.6747843,13.4377698 C19.0326009,13.5304166 19.2623643,13.633644 19.3640747,13.7474521 C19.4657851,13.8612601 19.5930095,14.0330605 19.7457479,14.2628533 C20.6369643,14.327591 21.5550559,14.2956187 22.5000227,14.1669365 C23.4449894,14.0382543 24.8332197,13.7951988 26.6647135,13.4377698 C27.3780724,13.6835585 27.9203901,13.8370823 28.2916667,13.8983411 C28.6629432,13.9596 29.1004432,13.9677414 29.6041667,13.9227654 C29.5738677,13.7293637 29.6537627,13.6312158 29.8438517,13.6283216 C30.0339407,13.6254274 30.4887679,13.7154339 31.2083333,13.8983411 L29.8438517,12.7815198 Z" id="Path-2-Copy-7" fill="#EE712E"></path>
            <path d="M10.6822917,1.88795031 C8.33107326,1.6328013 6.68582803,1.7923898 5.74655597,2.36671579 C4.33764789,3.22820479 3.13541667,6.10515767 3.13541667,6.10515767 C2.79513889,6.33713589 2.45486111,6.33713589 2.11458333,6.10515767 C2.21151465,6.55224981 2.38165354,6.89216244 2.625,7.12489557 C2.86834646,7.35762869 3.41522146,7.70345804 4.265625,8.16238362 L10.6822917,1.88795031 Z" id="Path-13-Copy" fill-opacity="0.4" fill="#381414"></path>
            <path d="M32.921875,1.88795031 C30.5706566,1.6328013 28.9254114,1.7923898 27.9861393,2.36671579 C26.5772312,3.22820479 25.375,6.10515767 25.375,6.10515767 C25.0347222,6.33713589 24.6944444,6.33713589 24.3541667,6.10515767 C24.451098,6.55224981 24.6212369,6.89216244 24.8645833,7.12489557 C25.1079298,7.35762869 25.6548048,7.70345804 26.5052083,8.16238362 L32.921875,1.88795031 Z" id="Path-13-Copy-2" fill-opacity="0.4" fill="#381414" transform="translate(28.638021, 4.966304) scale(-1, 1) translate(-28.638021, -4.966304) "></path>
            <g id="Group-11-Copy-2" transform="translate(3.937500, 1.677083)">
                <ellipse id="Oval-Copy-25" fill="#FFFFFF" cx="5.10416667" cy="5.21354167" rx="5.10416667" ry="5.21354167"></ellipse>
                <ellipse id="Oval" fill="#141414" cx="5.6875" cy="5.06453804" rx="3.64583333" ry="3.60620471"></ellipse>
                <path d="M7.95169873,4.8386845 C8.36666859,4.34519542 8.16271743,3.49270057 7.49616106,2.93458396 C6.8296047,2.37646736 5.95285446,2.32407641 5.5378846,2.8175655 C5.12291474,3.31105458 5.3268659,4.16354943 5.99342227,4.72166604 C6.65997864,5.27978264 7.53672887,5.33217359 7.95169873,4.8386845 Z" id="Oval" fill="#FFFFFF"></path>
            </g>
            <g id="Group-11-Copy-3" transform="translate(20.927083, 1.677083)">
                <ellipse id="Oval-Copy-25" fill="#FFFFFF" cx="5.10416667" cy="5.21354167" rx="5.10416667" ry="5.21354167"></ellipse>
                <ellipse id="Oval" fill="#141414" cx="5.6875" cy="5.06453804" rx="3.64583333" ry="3.60620471"></ellipse>
                <path d="M7.95169873,4.8386845 C8.36666859,4.34519542 8.16271743,3.49270057 7.49616106,2.93458396 C6.8296047,2.37646736 5.95285446,2.32407641 5.5378846,2.8175655 C5.12291474,3.31105458 5.3268659,4.16354943 5.99342227,4.72166604 C6.65997864,5.27978264 7.53672887,5.33217359 7.95169873,4.8386845 Z" id="Oval" fill="#FFFFFF"></path>
            </g>
        </g>
    </g>
</svg>